<?xml version="1.0" standalone="no"?>
<!DOCTYPE svg PUBLIC "-//W3C//DTD SVG 20010904//EN"
 "http://www.w3.org/TR/2001/REC-SVG-20010904/DTD/svg10.dtd">
<svg version="1.0" xmlns="http://www.w3.org/2000/svg"
 width="417.000000pt" height="417.000000pt" viewBox="0 0 417.000000 417.000000"
 preserveAspectRatio="xMidYMid meet">
<metadata>
Created by potrace 1.11, written by Peter Selinger 2001-2013
</metadata>
<g transform="translate(0.000000,417.000000) scale(0.100000,-0.100000)"
fill="#000000" stroke="none">
<path d="M1996 4060 c-187 -58 -354 -289 -476 -658 -26 -78 -49 -144 -51 -146
-2 -3 -36 4 -74 15 -39 11 -86 22 -105 25 -19 3 -39 8 -43 11 -4 2 -21 6 -38
8 -16 2 -46 7 -67 10 -169 25 -305 25 -422 1 -285 -60 -398 -274 -299 -568 56
-169 194 -379 378 -578 27 -30 50 -59 50 -65 0 -5 -31 -44 -70 -85 -39 -41
-97 -109 -128 -150 -31 -41 -61 -81 -68 -88 -6 -6 -15 -21 -18 -32 -3 -11 -10
-20 -14 -20 -16 0 -131 -246 -150 -320 -28 -110 -23 -229 13 -300 117 -233
446 -292 941 -169 44 11 88 22 97 25 15 4 24 -9 34 -51 8 -33 56 -172 83 -238
101 -254 233 -427 377 -498 61 -30 78 -34 149 -34 72 0 89 4 150 34 147 73
280 252 382 516 29 73 68 190 64 190 0 0 6 18 14 40 7 22 19 39 26 37 294 -73
375 -86 544 -86 166 0 238 14 335 65 228 121 257 380 78 699 -33 59 -125 196
-146 218 -7 8 -25 30 -40 50 -15 20 -43 54 -64 76 -106 118 -111 127 -85 143
24 15 178 196 236 277 64 91 151 241 151 261 0 8 4 16 8 19 5 3 20 40 33 83
17 58 23 102 24 173 0 88 -3 101 -33 162 -75 153 -223 221 -482 222 -123 1
-252 -8 -268 -18 -4 -2 -25 -7 -47 -10 -22 -4 -87 -18 -144 -31 -57 -14 -106
-23 -109 -21 -2 3 -27 71 -53 151 -133 398 -307 622 -514 663 -65 13 -94 12
-159 -8z m205 -121 c131 -66 272 -287 362 -564 51 -154 52 -161 30 -169 -10
-4 -61 -23 -113 -43 -52 -19 -120 -46 -150 -60 -97 -44 -98 -45 -115 -20 -8
12 -15 18 -15 14 0 -4 -13 -1 -30 8 -43 22 -115 19 -164 -7 -22 -13 -42 -26
-44 -30 -2 -4 -20 1 -40 11 -35 18 -218 91 -305 122 -31 11 -37 18 -34 34 3
11 7 29 10 40 35 143 166 433 232 514 85 103 151 155 220 172 45 11 111 1 156
-22z m-1136 -714 c33 -5 65 -9 70 -9 51 -6 236 -49 275 -63 8 -4 18 -5 23 -5
11 3 9 -29 -8 -107 -8 -39 -17 -85 -20 -103 -3 -18 -10 -58 -15 -87 -12 -65
-7 -72 54 -78 34 -4 46 -1 47 9 1 28 28 178 46 260 l14 66 82 -30 c75 -27 174
-68 252 -104 23 -11 30 -20 30 -43 0 -26 -12 -36 -145 -115 -80 -48 -156 -95
-169 -105 l-24 -19 28 -44 28 -45 66 42 c36 23 106 65 154 93 l88 52 -32 -58
c-18 -31 -36 -60 -41 -63 -5 -3 -8 -8 -6 -11 5 -8 -74 -138 -84 -138 -5 0 -6
-5 -2 -11 3 -6 -3 -24 -15 -40 -11 -15 -21 -32 -21 -36 -1 -4 -9 -18 -19 -30
-20 -24 -41 -30 -41 -13 0 6 -5 10 -10 10 -6 0 -33 15 -60 33 -48 31 -50 34
-49 77 4 117 -84 199 -202 188 -162 -16 -215 -234 -78 -325 34 -22 55 -28 101
-29 51 -1 64 3 100 30 22 17 46 35 53 40 8 6 26 0 51 -18 21 -14 42 -26 47
-26 4 0 18 -9 30 -20 18 -18 20 -22 7 -30 -8 -5 -11 -10 -7 -10 5 0 0 -12 -11
-27 -11 -16 -31 -52 -46 -80 -14 -29 -31 -53 -36 -53 -6 0 -9 -3 -8 -7 3 -13
-25 -63 -34 -63 -5 0 -7 -4 -3 -9 3 -5 1 -12 -5 -16 -6 -4 -8 -11 -5 -16 4 -5
2 -9 -4 -9 -5 0 -19 -20 -31 -46 -12 -25 -24 -43 -27 -40 -3 2 -5 75 -6 160 0
86 -3 156 -6 157 -3 0 -27 2 -53 3 -56 2 -51 26 -50 -211 1 -153 0 -163 -19
-174 -24 -13 -7 -25 -189 132 -128 110 -121 102 -92 128 11 9 50 44 89 79 39
35 78 68 86 75 14 11 12 17 -20 54 l-36 43 -66 -57 c-36 -32 -84 -74 -106 -95
-22 -21 -43 -38 -47 -38 -12 0 -50 41 -191 210 -47 56 -146 210 -180 280 -121
253 -88 429 96 505 92 38 252 50 402 30z m2416 -18 c101 -33 155 -73 192 -142
31 -56 30 -174 -2 -270 -51 -156 -184 -357 -362 -547 -55 -59 -57 -60 -75 -41
-82 82 -203 182 -215 177 -8 -3 -26 -21 -42 -39 l-27 -33 99 -86 c54 -47 104
-92 111 -100 14 -18 -7 -40 -150 -162 -159 -135 -161 -134 -159 80 1 250 7
223 -48 220 -27 -1 -51 -3 -54 -3 -3 -1 -6 -71 -5 -157 1 -86 -2 -158 -5 -160
-4 -2 -12 10 -19 26 -7 17 -16 30 -21 30 -5 0 -9 9 -9 20 0 11 -3 20 -7 20 -5
0 -13 10 -19 23 -6 12 -39 70 -72 129 -34 60 -62 112 -62 117 0 5 -4 11 -10
13 -17 5 3 25 63 61 l58 35 32 -29 c115 -106 303 -22 299 134 -4 178 -233 243
-329 94 -22 -34 -27 -53 -27 -101 l1 -58 -60 -39 c-34 -22 -65 -38 -70 -36 -5
1 -21 25 -35 52 -15 28 -30 52 -34 53 -5 2 -8 12 -8 23 0 10 -4 19 -9 19 -5 0
-16 15 -25 33 -8 17 -24 45 -35 61 -11 17 -18 33 -15 38 3 4 0 8 -5 8 -6 0
-11 6 -11 14 0 8 -3 16 -7 18 -5 2 -19 23 -32 47 l-24 45 39 -24 c21 -13 88
-54 148 -91 l109 -68 19 24 c10 13 18 28 18 34 0 6 5 11 10 11 17 0 11 30 -7
37 -10 4 -20 9 -23 12 -6 7 -8 8 -158 97 -121 72 -125 76 -127 111 -1 20 13
29 105 67 147 62 242 97 253 93 6 -2 12 -10 13 -18 2 -7 15 -79 29 -158 14
-80 27 -146 29 -148 2 -2 27 -1 55 3 l52 7 -6 36 c-21 132 -26 161 -30 173 -5
12 -8 29 -21 110 l-6 36 54 16 c113 33 198 50 298 62 30 3 57 8 59 10 11 11
280 -6 322 -19z m-1408 -642 c0 -173 1 -185 18 -185 25 0 29 22 27 175 -1 72
2 136 6 143 4 7 3 12 -2 12 -5 0 -7 11 -4 25 6 33 21 21 53 -42 13 -27 28 -51
34 -55 7 -5 7 -8 0 -8 -5 0 -5 -4 2 -8 6 -4 13 -14 15 -22 3 -14 13 -29 36
-55 6 -7 12 -17 12 -21 0 -4 21 -43 48 -87 26 -45 46 -85 44 -89 -1 -4 2 -8 7
-8 5 0 11 -7 14 -14 4 -10 -7 -23 -29 -36 -37 -23 -39 -27 -24 -50 8 -12 11
-12 28 3 10 9 22 14 25 10 4 -3 7 -1 7 5 0 7 7 12 15 12 8 0 15 -7 15 -15 0
-8 5 -15 11 -15 5 0 7 -4 4 -10 -3 -5 -2 -10 3 -10 9 0 29 -36 30 -54 0 -5 4
-12 9 -15 5 -3 29 -42 53 -86 24 -44 47 -81 52 -83 4 -2 8 -8 8 -13 0 -5 11
-27 24 -48 14 -21 22 -42 19 -45 -4 -3 -2 -6 4 -6 14 0 23 -35 12 -51 -8 -14
-30 -19 -39 -9 -3 3 -18 13 -35 22 -16 10 -29 22 -28 28 2 5 0 9 -5 8 -12 -4
-72 24 -72 33 0 5 -7 9 -15 9 -8 0 -15 5 -15 11 0 5 -4 8 -9 5 -5 -4 -11 -3
-13 2 -1 4 -26 22 -54 39 l-52 31 -10 -23 c-9 -20 -8 -25 8 -30 11 -4 20 -11
20 -17 0 -6 3 -9 6 -5 3 3 11 2 18 -4 29 -24 117 -79 126 -79 5 0 10 -4 10
-10 0 -5 5 -10 10 -10 9 0 120 -69 120 -75 0 -1 -112 -1 -250 -1 -282 0 -254
-9 -251 84 1 38 -2 42 -22 42 -21 0 -24 -5 -24 -37 0 -21 -1 -49 -2 -64 l-1
-25 -249 0 c-239 -1 -249 0 -240 18 5 10 12 18 15 18 3 0 2 -4 -1 -10 -12 -19
11 -10 25 10 8 11 20 20 27 20 7 0 13 4 13 9 0 9 38 24 53 22 5 -1 6 2 3 7 -2
4 12 17 32 27 20 11 39 22 42 25 12 14 86 55 93 52 5 -1 7 8 5 20 -4 32 -32
34 -71 4 -19 -14 -37 -23 -42 -18 -5 4 -5 2 -2 -4 4 -7 -7 -17 -26 -25 -17 -7
-41 -21 -51 -31 -11 -10 -26 -18 -33 -18 -7 0 -13 -4 -13 -10 0 -5 -7 -10 -15
-10 -8 0 -15 -3 -15 -7 0 -5 -18 -17 -41 -27 -33 -16 -42 -17 -49 -6 -8 13 -3
40 10 50 4 3 20 30 36 60 56 102 76 135 88 142 6 4 8 8 4 8 -3 0 18 41 48 90
30 50 54 95 54 100 0 14 5 13 51 -10 36 -19 40 -19 46 -4 7 18 -43 67 -59 58
-16 -10 -3 18 53 111 17 28 33 58 36 68 3 9 9 17 13 17 4 0 11 11 14 25 4 14
11 25 16 25 6 0 10 6 10 14 0 7 9 25 20 38 10 14 17 28 13 31 -3 4 2 9 11 13
9 3 13 10 10 15 -3 5 0 9 7 9 7 0 9 3 6 7 -4 3 1 12 11 20 10 9 11 11 2 7 -13
-7 -13 -6 0 11 27 35 35 43 39 39 2 -2 4 -87 4 -189z m-1082 -577 c25 -24 72
-65 104 -93 32 -27 73 -63 91 -78 32 -27 32 -29 19 -61 -11 -25 -11 -36 -3
-44 9 -9 9 -12 1 -12 -19 0 24 -102 54 -128 32 -27 70 -45 95 -44 12 0 18 -12
23 -51 4 -29 9 -61 11 -72 2 -10 6 -37 9 -60 3 -22 8 -51 10 -65 3 -14 7 -36
10 -50 3 -14 10 -49 16 -77 5 -29 8 -57 5 -62 -6 -9 -201 -59 -261 -67 -16 -2
-41 -6 -55 -10 -58 -13 -301 -16 -362 -4 -72 14 -158 51 -194 85 -137 127 -77
386 161 702 71 93 198 233 212 233 4 0 29 -19 54 -42z m2314 -10 c26 -29 59
-66 74 -83 146 -162 281 -401 308 -543 36 -188 -62 -317 -264 -349 -63 -10
-221 -9 -303 1 -36 4 -76 9 -90 11 -14 1 -32 5 -40 7 -8 3 -64 17 -124 31 -60
15 -111 29 -114 32 -3 3 4 56 16 117 23 116 27 140 37 218 3 25 8 54 10 65 2
11 4 23 4 27 1 4 18 15 39 23 48 20 99 71 107 104 13 63 14 77 6 108 -9 31 -7
33 82 110 137 115 149 126 170 151 12 12 24 22 27 22 4 0 28 -24 55 -52z
m-1234 -367 c4 -65 3 -124 -1 -130 -3 -3 -25 -15 -48 -26 -95 -41 -132 -146
-87 -240 31 -64 79 -97 146 -101 66 -3 101 10 143 54 82 84 58 230 -46 283
-21 10 -43 19 -50 19 -10 0 -13 19 -11 72 0 40 1 76 2 79 1 4 99 7 218 7 l217
0 -28 -21 c-34 -25 -182 -116 -213 -131 l-21 -11 26 -47 c15 -27 29 -48 32
-48 3 0 77 45 165 99 149 92 161 98 178 83 20 -18 20 -27 -8 -194 -3 -18 -8
-46 -11 -63 -2 -16 -12 -63 -20 -103 -14 -60 -19 -72 -33 -67 -9 4 -35 13 -59
21 -24 9 -80 31 -125 50 -45 19 -83 34 -85 34 -9 0 -43 -93 -35 -100 12 -11
264 -110 281 -110 17 0 11 -30 -35 -170 -76 -229 -176 -407 -286 -510 -83 -77
-198 -98 -289 -51 -138 71 -286 307 -374 600 -10 31 -19 61 -20 66 -20 61 -23
58 88 99 110 40 198 77 198 83 0 8 -41 93 -45 93 -2 0 -41 -15 -87 -33 -125
-51 -189 -70 -198 -61 -4 5 -15 50 -24 99 -9 50 -18 101 -21 115 -6 32 -13 81
-20 151 -9 76 7 81 86 32 117 -74 264 -163 269 -163 7 0 54 90 49 94 -2 2 -53
34 -114 72 -60 37 -112 71 -115 74 -3 4 -12 9 -20 12 -8 3 85 5 208 5 198 1
222 -1 223 -16z"/>
<path d="M2045 2307 c-168 -55 -173 -285 -8 -342 79 -27 156 0 207 73 35 50
40 117 13 174 -36 76 -135 121 -212 95z"/>
</g>
</svg>
